HIERARCHY
ROOT Hips
{
	OFFSET 0.000000 100.481300 0.000000
	CHANNELS 6 Xposition Yposition Zposition Xrotation Yrotation Zrotation
	JOINT Spine
	{
		OFFSET -0.279200 12.230698 -2.892100
		CHANNELS 3 Xrotation Yrotation Zrotation
		JOINT Spine1
		{
			OFFSET -0.325700 14.269203 -3.374200
			CHANNELS 3 Xrotation Yrotation Zrotation
			JOINT Spine2
			{
				OFFSET -0.372300 16.307602 -0.352600
				CHANNELS 3 Xrotation Yrotation Zrotation
				JOINT Neck
				{
					OFFSET -0.418800 17.814194 8.416900
					CHANNELS 3 Xrotation Yrotation Zrotation
					JOINT Head
					{
						OFFSET 0.000000 7.031097 3.806800
						CHANNELS 3 Xrotation Yrotation Zrotation
						JOINT HeadTop_End
						{
							OFFSET 0.000000 24.646606 12.978600
							CHANNELS 3 Xrotation Yrotation Zrotation
							End Site
							{
								OFFSET 0.000000 27.854965 0.000000
							}
						}
					}
				}
				JOINT LeftShoulder
				{
					OFFSET 16.952999 14.495407 -7.737500
					CHANNELS 3 Xrotation Yrotation Zrotation
					JOINT LeftArm
					{
						OFFSET 9.308998 -2.777710 0.208600
						CHANNELS 3 Xrotation Yrotation Zrotation
						JOINT LeftForeArm
						{
							OFFSET 29.972298 0.000000 0.000000
							CHANNELS 3 Xrotation Yrotation Zrotation
							JOINT LeftHand
							{
								OFFSET 26.026505 0.000000 0.000000
								CHANNELS 3 Xrotation Yrotation Zrotation
								JOINT LeftHandThumb1
								{
									OFFSET 12.240501 -7.147949 9.207150
									CHANNELS 3 Xrotation Yrotation Zrotation
									JOINT LeftHandThumb2
									{
										OFFSET 4.138618 -2.389435 2.389433
										CHANNELS 3 Xrotation Yrotation Zrotation
										JOINT LeftHandThumb3
										{
											OFFSET 2.726913 -1.574387 1.574386
											CHANNELS 3 Xrotation Yrotation Zrotation
											JOINT LeftHandThumb4
											{
												OFFSET 3.941010 -2.275345 2.275342
												CHANNELS 3 Xrotation Yrotation Zrotation
												End Site
												{
													OFFSET -0.005798 5.087799 0.009903
												}
											}
										}
									}
								}
								JOINT LeftHandIndex1
								{
									OFFSET 24.424698 -1.985611 5.953459
									CHANNELS 3 Xrotation Yrotation Zrotation
									JOINT LeftHandIndex2
									{
										OFFSET 6.426697 0.000000 0.000000
										CHANNELS 3 Xrotation Yrotation Zrotation
										JOINT LeftHandIndex3
										{
											OFFSET 5.337898 0.000000 0.000000
											CHANNELS 3 Xrotation Yrotation Zrotation
											JOINT LeftHandIndex4
											{
												OFFSET 4.409401 0.000000 0.000000
												CHANNELS 3 Xrotation Yrotation Zrotation
												End Site
												{
													OFFSET 0.000000 4.409363 0.014373
												}
											}
										}
									}
								}
								JOINT LeftHandMiddle1
								{
									OFFSET 23.810104 0.000000 0.000000
									CHANNELS 3 Xrotation Yrotation Zrotation
									JOINT LeftHandMiddle2
									{
										OFFSET 7.176498 0.000000 0.000000
										CHANNELS 3 Xrotation Yrotation Zrotation
										JOINT LeftHandMiddle3
										{
											OFFSET 6.774902 0.000000 0.000000
											CHANNELS 3 Xrotation Yrotation Zrotation
											JOINT LeftHandMiddle4
											{
												OFFSET 5.403328 0.000000 0.000000
												CHANNELS 3 Xrotation Yrotation Zrotation
												End Site
												{
													OFFSET -0.027702 5.403244 0.017414
												}
											}
										}
									}
								}
								JOINT LeftHandRing1
								{
									OFFSET 22.908401 -0.839279 -6.020567
									CHANNELS 3 Xrotation Yrotation Zrotation
									JOINT LeftHandRing2
									{
										OFFSET 6.337502 0.000000 0.000000
										CHANNELS 3 Xrotation Yrotation Zrotation
										JOINT LeftHandRing3
										{
											OFFSET 5.779297 0.000000 0.000000
											CHANNELS 3 Xrotation Yrotation Zrotation
											JOINT LeftHandRing4
											{
												OFFSET 4.965698 0.000000 0.000000
												CHANNELS 3 Xrotation Yrotation Zrotation
												End Site
												{
													OFFSET 0.000000 4.965668 0.016186
												}
											}
										}
									}
								}
								JOINT LeftHandPinky1
								{
									OFFSET 20.037003 -1.530319 -10.950146
									CHANNELS 3 Xrotation Yrotation Zrotation
									JOINT LeftHandPinky2
									{
										OFFSET 5.254700 0.000000 0.000000
										CHANNELS 3 Xrotation Yrotation Zrotation
										JOINT LeftHandPinky3
										{
											OFFSET 4.810204 0.000000 0.000000
											CHANNELS 3 Xrotation Yrotation Zrotation
											JOINT LeftHandPinky4
											{
												OFFSET 3.647202 0.000000 0.000000
												CHANNELS 3 Xrotation Yrotation Zrotation
												End Site
												{
													OFFSET 0.000000 3.647186 0.011889
												}
											}
										}
									}
								}
							}
						}
					}
				}
				JOINT RightShoulder
				{
					OFFSET -15.141001 14.495407 -7.737500
					CHANNELS 3 Xrotation Yrotation Zrotation
					JOINT RightArm
					{
						OFFSET -9.308998 -2.777710 0.208500
						CHANNELS 3 Xrotation Yrotation Zrotation
						JOINT RightForeArm
						{
							OFFSET -29.972300 0.000000 0.000000
							CHANNELS 3 Xrotation Yrotation Zrotation
							JOINT RightHand
							{
								OFFSET -26.026505 0.000000 0.000000
								CHANNELS 3 Xrotation Yrotation Zrotation
								JOINT RightHandThumb1
								{
									OFFSET -12.240601 -7.148026 9.207092
									CHANNELS 3 Xrotation Yrotation Zrotation
									JOINT RightHandThumb2
									{
										OFFSET -4.138618 -2.389435 2.389433
										CHANNELS 3 Xrotation Yrotation Zrotation
										JOINT RightHandThumb3
										{
											OFFSET -2.726974 -1.574417 1.574421
											CHANNELS 3 Xrotation Yrotation Zrotation
											JOINT RightHandThumb4
											{
												OFFSET -3.941010 -2.275345 2.275343
												CHANNELS 3 Xrotation Yrotation Zrotation
												End Site
												{
													OFFSET 0.005814 5.087799 0.009927
												}
											}
										}
									}
								}
								JOINT RightHandIndex1
								{
									OFFSET -24.424698 -1.985657 5.953444
									CHANNELS 3 Xrotation Yrotation Zrotation
									JOINT RightHandIndex2
									{
										OFFSET -6.426697 0.000000 0.000000
										CHANNELS 3 Xrotation Yrotation Zrotation
										JOINT RightHandIndex3
										{
											OFFSET -5.337898 0.000000 0.000000
											CHANNELS 3 Xrotation Yrotation Zrotation
											JOINT RightHandIndex4
											{
												OFFSET -4.409401 0.000000 0.000000
												CHANNELS 3 Xrotation Yrotation Zrotation
												End Site
												{
													OFFSET 0.000000 4.409363 0.014408
												}
											}
										}
									}
								}
								JOINT RightHandMiddle1
								{
									OFFSET -23.810097 0.000000 0.000000
									CHANNELS 3 Xrotation Yrotation Zrotation
									JOINT RightHandMiddle2
									{
										OFFSET -7.176498 0.000000 0.000000
										CHANNELS 3 Xrotation Yrotation Zrotation
										JOINT RightHandMiddle3
										{
											OFFSET -6.774902 0.000000 0.000000
											CHANNELS 3 Xrotation Yrotation Zrotation
											JOINT RightHandMiddle4
											{
												OFFSET -5.403328 0.000000 0.000000
												CHANNELS 3 Xrotation Yrotation Zrotation
												End Site
												{
													OFFSET 0.027702 5.403244 0.017457
												}
											}
										}
									}
								}
								JOINT RightHandRing1
								{
									OFFSET -22.908302 -0.839325 -6.020576
									CHANNELS 3 Xrotation Yrotation Zrotation
									JOINT RightHandRing2
									{
										OFFSET -6.337502 0.000000 0.000000
										CHANNELS 3 Xrotation Yrotation Zrotation
										JOINT RightHandRing3
										{
											OFFSET -5.779297 0.000000 0.000000
											CHANNELS 3 Xrotation Yrotation Zrotation
											JOINT RightHandRing4
											{
												OFFSET -4.965698 0.000000 0.000000
												CHANNELS 3 Xrotation Yrotation Zrotation
												End Site
												{
													OFFSET 0.000000 4.965668 0.016226
												}
											}
										}
									}
								}
								JOINT RightHandPinky1
								{
									OFFSET -20.037003 -1.530334 -10.950259
									CHANNELS 3 Xrotation Yrotation Zrotation
									JOINT RightHandPinky2
									{
										OFFSET -5.254700 0.000000 0.000000
										CHANNELS 3 Xrotation Yrotation Zrotation
										JOINT RightHandPinky3
										{
											OFFSET -4.810204 0.000000 0.000000
											CHANNELS 3 Xrotation Yrotation Zrotation
											JOINT RightHandPinky4
											{
												OFFSET -3.647202 0.000000 0.000000
												CHANNELS 3 Xrotation Yrotation Zrotation
												End Site
												{
													OFFSET 0.000000 3.647186 0.011917
												}
											}
										}
									}
								}
							}
						}
					}
				}
			}
		}
	}
	JOINT LeftUpLeg
	{
		OFFSET 15.427100 -6.655098 0.678600
		CHANNELS 3 Xrotation Yrotation Zrotation
		JOINT LeftLeg
		{
			OFFSET 4.081073 -39.591068 13.024000
			CHANNELS 3 Xrotation Yrotation Zrotation
			JOINT LeftFoot
			{
				OFFSET -4.081074 -37.707932 -15.979700
				CHANNELS 3 Xrotation Yrotation Zrotation
				JOINT LeftToeBase
				{
					OFFSET 5.346399 -15.068900 20.645000
					CHANNELS 3 Xrotation Yrotation Zrotation
					JOINT LeftToe_End
					{
						OFFSET 2.754700 0.931300 11.300900
						CHANNELS 3 Xrotation Yrotation Zrotation
						End Site
						{
							OFFSET 0.000000 11.669021 0.000000
						}
					}
				}
			}
		}
	}
	JOINT RightUpLeg
	{
		OFFSET -15.569500 -6.655098 0.678600
		CHANNELS 3 Xrotation Yrotation Zrotation
		JOINT RightLeg
		{
			OFFSET -4.081825 -39.591045 13.023800
			CHANNELS 3 Xrotation Yrotation Zrotation
			JOINT RightFoot
			{
				OFFSET 4.081824 -37.707954 -15.979600
				CHANNELS 3 Xrotation Yrotation Zrotation
				JOINT RightToeBase
				{
					OFFSET -5.346400 -15.068900 20.645000
					CHANNELS 3 Xrotation Yrotation Zrotation
					JOINT RightToe_End
					{
						OFFSET -2.754700 0.931300 11.300900
						CHANNELS 3 Xrotation Yrotation Zrotation
						End Site
						{
							OFFSET 0.000000 11.669021 0.000000
						}
					}
				}
			}
		}
	}
}
MOTION
Frames: 6
Frame Time: 0.033333
0.572009 49.353638 16.957327 6.210516 1.763096 0.757881 12.759628 -0.339814 -1.435889 4.466894 -0.541038 -0.277031 4.464566 -0.298640 -0.159662 -3.625122 -1.284342 0.469464 -30.631315 -3.956754 -5.538102 -0.000001 -0.000000 0.000000 2.813046 -15.492049 -6.609951 -49.058896 -19.372607 -70.558415 0.000066 -62.983271 0.000067 -18.189342 -3.010023 35.253062 24.641782 -18.579262 42.396818 -0.423762 20.223353 -6.876378 -12.517998 17.000141 11.794690 0.000001 -0.000000 0.000000 6.527751 1.237883 9.573548 0.001898 0.149473 -1.458809 0.062704 -0.855756 8.381284 -0.000000 0.000001 0.000002 -0.149316 5.028445 4.387717 0.000004 0.004703 -0.045955 0.042858 -0.708112 6.927151 0.000000 -0.000000 -0.000002 -0.225153 5.825683 4.677294 0.004649 0.233606 -2.280153 0.039886 -0.683151 6.681867 0.000001 -0.000000 -0.000001 -2.706550 7.397230 3.000915 0.003959 0.215604 -2.104390 0.059211 -0.831733 8.144258 0.000001 -0.000000 -0.000000 2.001468 8.778081 15.824698 -39.744591 12.666121 66.600929 0.002080 87.877111 -0.002046 7.060234 8.354863 -64.835222 -26.299283 18.705945 -11.577113 -3.315804 -15.361997 -6.664271 -9.890865 -24.091686 -18.777131 -0.000003 0.000005 -0.000000 0.773419 1.737380 -10.153718 0.003286 -0.175120 2.150166 0.088158 0.902800 -11.153693 -0.000001 -0.000001 -0.000000 0.296153 -0.774762 -17.200179 0.042387 -0.627645 7.728476 0.082986 0.876162 -10.820471 -0.000000 0.000001 0.000001 0.387635 -0.473245 -16.958340 0.015490 -0.379858 4.668191 0.010923 0.319274 -3.922370 0.000002 0.000003 -0.000001 -4.216018 -1.384754 -21.222412 0.019467 -0.425986 5.236636 0.027915 0.509693 -6.269456 -0.000004 0.000000 -0.000002 -92.858293 -11.399379 16.666182 79.110946 -0.407933 -3.081976 9.880368 -6.357547 -9.714482 -0.103113 0.000004 0.000000 0.000000 0.000001 0.000000 -93.012136 14.806187 -14.937086 80.757425 -0.300421 1.476857 9.849346 -0.582821 12.534160 -0.191611 -0.000000 0.000001 -0.000000 -0.000000 0.000000 
0.570169 49.316498 16.996397 6.193420 1.679071 0.765088 12.901929 -0.130857 -1.430156 4.694805 -0.141626 -0.308517 4.694170 0.023489 -0.252673 -4.183004 -1.284342 0.469464 -30.801291 -4.576745 -5.690274 -0.000000 -0.000001 0.000001 1.834967 -18.782537 -6.271243 -46.688182 -23.988367 -69.250926 -0.000061 -67.590295 -0.000065 -23.441581 2.888781 29.391718 24.975647 -25.027850 47.284952 1.755695 18.857570 -11.026553 -9.936403 17.142525 8.422305 -0.000000 0.000000 0.000003 7.248765 3.252174 6.798279 0.078407 0.956363 -9.375173 0.018204 0.462111 -4.514182 0.000000 0.000000 0.000000 0.133971 7.456189 -0.536808 0.050383 0.767518 -7.511522 0.055014 0.801777 -7.849056 -0.000000 -0.000001 0.000000 0.151060 7.526120 -0.716316 0.046583 0.738101 -7.222162 0.063120 0.858487 -8.408290 0.000000 0.000001 -0.000000 -0.989973 10.818125 -2.390214 0.043279 0.711539 -6.960886 0.023327 0.522850 -5.109074 -0.000001 0.000002 0.000001 1.519524 11.280496 16.492106 -40.163090 20.852115 64.030824 0.000121 81.792772 -0.000151 8.230854 11.806372 -61.602986 -28.381979 21.540170 -12.336993 -0.318416 -17.812148 -3.379501 -10.990106 -25.947054 -23.596603 -0.000000 0.000000 -0.000004 0.242115 -0.016704 -0.674953 0.077553 -0.847243 10.459239 0.012344 0.339422 -4.170335 0.000002 0.000002 0.000000 -0.015409 -2.459345 -7.519109 0.203482 -1.362931 16.981421 0.008337 0.278505 -3.420970 0.000001 -0.000000 0.000004 0.044541 -1.993835 -7.714731 0.109232 -1.003800 12.420499 0.025581 -0.488024 6.001862 0.000001 0.000002 0.000000 -5.354427 -3.500315 -12.855140 0.137397 -1.124061 13.937265 0.009531 -0.298147 3.662519 -0.000001 -0.000002 0.000002 -92.832175 -11.480831 16.748204 79.218214 -0.413212 -3.096014 9.797136 -6.350257 -9.779300 -0.103113 0.000003 0.000000 0.000000 0.000000 0.000000 -93.078212 14.773590 -14.876352 80.812551 -0.258513 1.475322 9.842782 -0.581919 12.492465 -0.191611 -0.000000 0.000001 0.000000 -0.000000 0.000000 
0.568980 49.291122 17.021732 6.167681 1.595647 0.771371 13.050060 0.103859 -1.428094 4.944666 0.318814 -0.348696 4.946261 0.421665 -0.371540 -4.723565 -1.284343 0.469465 -30.756694 -5.172094 -5.833107 0.000000 -0.000000 -0.000000 0.921314 -22.158261 -5.927527 -43.859346 -27.482849 -66.903096 -0.000014 -72.283742 -0.000021 -26.723298 10.663625 24.113450 25.544783 -30.981642 52.412324 3.794635 17.261848 -15.065954 -7.376848 17.031101 5.060590 0.000000 0.000001 -0.000001 8.194421 5.311558 3.446407 0.289858 1.821636 -18.080721 0.315703 1.898942 -18.876910 0.000000 0.000002 -0.000002 0.872273 9.863970 -6.082193 0.224970 1.609447 -15.913513 0.510728 2.394245 -24.079979 0.000001 0.000000 0.000002 0.847396 9.077376 -6.719199 0.153063 1.331766 -13.112303 0.547997 2.475849 -24.956900 0.000002 0.000000 -0.000003 1.319080 13.811084 -8.453264 0.140817 1.278084 -12.574567 0.348498 1.992199 -19.842690 -0.000002 0.000002 -0.000002 1.006734 13.716016 17.169815 -39.210794 29.598314 59.988957 0.000068 75.904405 -0.000093 8.393880 15.775434 -56.604459 -29.628258 24.043801 -13.412286 3.519621 -19.776871 0.883032 -11.354781 -27.684555 -27.711391 0.000002 -0.000003 -0.000001 0.163894 -1.828154 8.744548 0.261545 -1.540331 19.274381 0.007805 -0.269879 3.314942 -0.000001 0.000001 -0.000001 0.120089 -4.186659 2.205219 0.503543 -2.108145 26.863935 0.014268 -0.364638 4.480659 0.000001 -0.000002 -0.000001 0.076314 -3.377047 1.529386 0.303114 -1.654346 20.765291 0.190675 -1.320269 16.434265 0.000000 0.000001 0.000000 -6.198870 -5.370207 -4.622299 0.375595 -1.834059 23.146323 0.140649 -1.137054 14.101914 -0.000000 -0.000001 -0.000000 -92.787901 -11.551581 16.826217 79.300538 -0.412303 -3.107698 9.727625 -6.343892 -9.836705 -0.103113 0.000003 0.000000 0.000000 -0.000000 0.000000 -93.123489 14.731142 -14.814755 80.841750 -0.222784 1.471399 9.848933 -0.579826 12.446545 -0.191611 -0.000001 0.000001 0.000000 -0.000000 -0.000000 
0.568637 49.289467 17.018877 6.128437 1.513315 0.776121 13.131888 0.243650 -1.431417 5.092999 0.608917 -0.377950 5.096314 0.690325 -0.455411 -5.143334 -1.284341 0.469464 -30.563085 -5.702800 -5.922506 0.000000 0.000000 0.000000 -0.002991 -25.296343 -5.762411 -41.348927 -29.385045 -63.350107 0.000150 -75.021971 0.000153 -27.957914 16.518025 23.639640 24.509688 -33.984887 54.890648 4.492735 16.332386 -17.127464 -6.348551 16.888017 3.360473 -0.000000 0.000001 -0.000001 8.926270 5.769178 0.220321 0.577882 2.539065 -25.640484 0.890359 3.106512 -31.978744 0.000002 -0.000001 -0.000001 1.616954 10.769283 -10.846275 0.479832 2.323909 -23.329283 1.262398 3.634207 -38.300764 0.000002 0.000000 0.000000 1.456213 9.531969 -11.678806 0.319509 1.909996 -18.991133 1.330938 3.719143 -39.369361 -0.000001 -0.000000 -0.000000 2.894698 14.865318 -13.396423 0.287797 1.815357 -18.016091 0.958913 3.213529 -33.222184 0.000001 0.000001 0.000002 0.693788 15.102674 17.620119 -36.307923 35.878574 54.126497 0.000147 73.002749 -0.000152 5.731075 19.399233 -50.682814 -27.060658 24.417192 -15.640409 7.926525 -19.657460 5.914220 -8.916949 -28.500675 -27.156351 0.000001 0.000002 0.000000 0.264081 -2.813120 13.498814 0.455530 -2.010627 25.528180 0.055023 -0.714478 8.805938 0.000002 0.000001 -0.000002 0.374392 -5.124562 7.208351 0.791769 -2.599619 33.872725 0.073877 -0.827256 10.209612 -0.000001 0.000000 -0.000000 0.187162 -3.810034 6.181760 0.503246 -2.107578 26.855952 0.390598 -1.868674 23.609857 0.000002 0.000001 0.000003 -6.876970 -5.901303 -0.566297 0.609985 -2.306143 29.627445 0.318205 -1.693577 21.281602 0.000003 0.000002 -0.000001 -92.710802 -11.601092 16.896121 79.331254 -0.398334 -3.114711 9.686760 -6.339446 -9.880482 -0.103113 0.000004 0.000000 -0.000000 0.000001 0.000000 -93.132054 14.669619 -14.750226 80.818364 -0.200081 1.462704 9.882037 -0.575112 12.392088 -0.191611 0.000000 0.000001 0.000000 -0.000000 -0.000000 
0.569229 49.305351 16.994877 6.077833 1.432760 0.779435 13.122450 0.241704 -1.439556 5.087707 0.640949 -0.388085 5.091144 0.732042 -0.473845 -5.147017 -1.284343 0.469464 -30.267673 -6.033394 -5.955916 0.000000 -0.000000 0.000000 -0.855224 -27.551877 -5.856159 -38.337702 -31.063284 -58.166075 0.000149 -74.923801 0.000167 -29.810798 15.663953 28.943896 22.461091 -31.941492 53.509744 3.716999 16.606145 -16.420425 -7.207609 16.954367 4.015408 0.000001 0.000001 -0.000000 8.565188 3.364848 -2.480827 0.847104 3.036268 -31.171611 1.534813 3.954055 -42.415748 -0.000003 -0.000001 -0.000000 1.595117 9.082985 -14.065403 0.717130 2.810508 -28.623617 1.987662 4.397528 -48.628372 -0.000000 0.000000 0.000000 1.471428 8.389963 -14.729568 0.525297 2.426528 -24.426129 2.069303 4.467909 -49.684924 -0.000001 0.000000 -0.000000 2.493262 13.422158 -16.281598 0.469476 2.299815 -23.072922 1.629401 4.054925 -43.770233 -0.000001 -0.000000 -0.000001 0.758655 14.853869 17.675947 -31.784265 38.548785 47.084169 0.000133 74.372420 -0.000142 -1.708544 19.157077 -41.449543 -19.241094 21.075882 -18.717693 12.571972 -16.877476 11.011318 -2.722211 -27.608540 -20.040690 -0.000000 -0.000000 0.000003 0.145039 -2.565169 11.589958 0.558616 -2.213465 28.324950 0.097718 -0.950035 11.745297 0.000001 -0.000002 -0.000001 0.275699 -4.893150 5.348621 0.924928 -2.787571 36.706021 0.121490 -1.058023 13.103220 -0.000000 -0.000002 -0.000001 0.105449 -3.218545 4.285338 0.617780 -2.319824 29.820859 0.480131 -2.061339 26.220787 0.000001 -0.000001 -0.000002 -7.166286 -5.316386 -2.271080 0.725594 -2.498338 32.385134 0.399873 -1.889746 23.892828 0.000002 -0.000001 -0.000001 -92.609347 -11.633877 16.959042 79.323652 -0.374791 -3.118085 9.668052 -6.336587 -9.912747 -0.103113 0.000004 0.000000 -0.000000 -0.000001 0.000000 -93.111236 14.594490 -14.684738 80.756004 -0.186840 1.450641 9.934839 -0.568600 12.332357 -0.191611 -0.000001 0.000001 0.000000 -0.000001 -0.000000 
0.570495 49.322433 16.969219 6.022162 1.354437 0.782029 13.049387 0.121240 -1.450157 4.965957 0.470823 -0.382308 4.967909 0.592238 -0.437712 -4.638545 -1.284342 0.469464 -29.974811 -5.863150 -5.930931 0.000000 0.000000 0.000000 -1.041638 -27.526262 -6.088803 -34.806419 -32.272630 -53.378990 0.000164 -72.946366 0.000159 -29.947074 7.087528 32.734918 25.180367 -24.043967 50.564164 3.286034 17.491556 -14.214355 -8.006040 17.040805 5.766583 -0.000001 0.000001 0.000002 6.960886 -0.081555 -4.687138 0.999491 3.274577 -33.939401 1.920876 4.337995 -47.751792 0.000000 -0.000000 -0.000000 0.795675 5.753984 -15.713993 0.839412 3.023543 -31.026274 2.321399 4.669485 -52.848896 -0.000000 -0.000001 0.000000 0.939088 6.215795 -15.983425 0.704588 2.787398 -28.366580 2.393054 4.722747 -53.724403 0.000002 -0.000000 0.000001 0.439573 10.364442 -17.435183 0.636403 2.657387 -26.930924 2.018926 4.424786 -49.034932 0.000000 -0.000000 0.000000 1.146403 13.216906 17.335032 -28.697002 38.079544 42.970629 0.000236 78.514295 -0.000207 -9.209556 11.191082 -29.390225 -10.142261 14.585422 -19.667552 15.828484 -14.085425 14.066701 4.366999 -25.320413 -10.724030 -0.000001 -0.000000 0.000001 0.133154 -1.483853 6.612996 0.616460 -2.317488 29.788033 0.139934 -1.134318 14.067166 -0.000001 0.000001 0.000003 0.058554 -3.896595 0.311710 0.964613 -2.839943 37.514107 0.162289 -1.220040 15.155003 -0.000002 0.000000 -0.000000 0.047292 -2.360286 -0.455261 0.692388 -2.445301 31.615692 0.495107 -2.091437 26.633921 0.000000 0.000000 -0.000000 -6.576643 -4.666123 -6.314212 0.779378 -2.581116 33.599090 0.413477 -1.920190 24.302404 0.000001 -0.000000 0.000002 -92.503410 -11.663170 17.019884 79.313448 -0.351542 -3.121002 9.651369 -6.333800 -9.941725 -0.103113 0.000003 0.000000 0.000000 0.000001 0.000000 -93.082139 14.519275 -14.621779 80.691438 -0.174087 1.438462 9.987738 -0.562048 12.273637 -0.191611 0.000000 0.000001 0.000000 0.000000 -0.000000 
